<?xml version="1.0" encoding="utf-8"?>
<!-- Generator: Adobe Illustrator 14.0.0, SVG Export Plug-In . SVG Version: 6.00 Build 43363)  -->
<!DOCTYPE svg PUBLIC "-//W3C//DTD SVG 1.1//EN" "http://www.w3.org/Graphics/SVG/1.1/DTD/svg11.dtd">
<svg version="1.1" id="Layer_1" xmlns="http://www.w3.org/2000/svg" xmlns:xlink="http://www.w3.org/1999/xlink" x="0px" y="0px"
	 width="81.418px" height="81.418px" viewBox="0 0 81.418 81.418" enable-background="new 0 0 81.418 81.418" xml:space="preserve">
<linearGradient id="SVGID_1_" gradientUnits="userSpaceOnUse" x1="23.9204" y1="81.3999" x2="23.9204" y2="4.882813e-004">
	<stop  offset="0" style="stop-color:#B6862C"/>
	<stop  offset="0.3879" style="stop-color:#C4932C"/>
	<stop  offset="0.6788" style="stop-color:#EDB61E"/>
	<stop  offset="1" style="stop-color:#FAC212"/>
</linearGradient>
<path fill="url(#SVGID_1_)" d="M47.223,67.861c-0.252,2.613-0.922,4.827-2.016,6.642c-1.092,1.815-2.348,3.14-3.766,3.976
	c-1.418,0.834-2.742,1.251-3.975,1.251c-1.682,0-3.262-0.646-4.738-1.94c-1.479-1.296-2.752-3.123-3.824-5.481
	c-1.074-2.359-1.908-5.191-2.504-8.493c-0.398-2.209-0.651-4.558-0.784-7.021c0.729,0.049,1.464,0.082,2.216,0.082
	c4.025,0,7.383-0.585,10.078-1.757c2.693-1.17,5.662-3.011,8.906-5.522v-2.085c-2.635,2.584-5.586,4.433-8.854,5.542
	c-3.266,1.11-6.266,1.664-8.996,1.664c-1.184,0-2.326-0.082-3.433-0.242c-0.01-0.475-0.028-0.94-0.028-1.424
	c0-3.75,0.287-7.229,0.863-10.436c0.578-3.207,1.418-5.988,2.525-8.349c1.105-2.359,2.387-4.144,3.844-5.354s3.074-1.815,4.85-1.815
	c1.482,0,3.111,0.552,4.887,1.651c1.775,1.103,3.377,2.936,4.809,5.5v-2.068c-1.764-2.492-3.375-4.32-4.838-5.481
	c-1.463-1.162-3.289-1.741-5.475-1.741c-2.305,0-4.408,0.769-6.309,2.304c-1.9,1.536-3.508,3.611-4.818,6.225
	s-2.305,5.555-2.98,8.82c-0.676,3.267-1.014,6.631-1.014,10.09c0,0.406,0.012,0.806,0.021,1.207
	c-0.623-0.21-1.233-0.445-1.827-0.715c-2.684-1.221-5.041-3.018-7.078-5.396c-2.037-2.377-3.584-5.182-4.645-8.413
	c-1.06-3.23-1.59-6.736-1.59-10.515c0-3.901,0.547-7.517,1.645-10.845c1.098-3.328,2.635-6.182,4.609-8.56
	c1.973-2.377,4.32-4.217,7.039-5.522c2.721-1.304,5.629-1.957,8.725-1.957c2.268,0,4.705,0.419,7.314,1.262
	c2.609,0.841,4.92,2.177,6.932,4.005c2.012,1.828,3.248,4.061,3.713,6.693h0.621L47.84,0.768h-0.586
	c-0.17,0.732-0.414,1.238-0.73,1.518c-0.318,0.28-0.951,0.42-1.902,0.42c-0.512,0-1.135-0.073-1.865-0.219l-3.803-1.061
	C35.344,0.475,31.942,0,28.749,0c-5.17,0-9.961,1.311-14.375,3.932C9.959,6.554,6.461,10.113,3.876,14.613
	C1.292,19.111,0,23.982,0,29.223c0,3.486,0.621,6.877,1.864,10.169c1.245,3.291,3.074,6.254,5.487,8.888
	c2.415,2.634,5.37,4.726,8.87,6.272c1.821,0.806,3.746,1.397,5.77,1.784c0.269,3.724,0.922,7.246,1.967,10.563
	c1.402,4.464,3.303,7.997,5.701,10.599c2.396,2.602,5,3.902,7.809,3.902c1.736,0,3.584-0.473,5.545-1.415l2.066-1.054
	c0.398-0.145,0.734-0.217,1.014-0.217c0.516,0,0.859,0.139,1.033,0.416c0.17,0.279,0.305,0.78,0.396,1.507h0.318l-0.279-12.776
	H47.223z"/>
</svg>
