<?xml version="1.0" encoding="utf-8"?>
<!-- Generator: Adobe Illustrator 14.0.0, SVG Export Plug-In . SVG Version: 6.00 Build 43363)  -->
<!DOCTYPE svg PUBLIC "-//W3C//DTD SVG 1.1//EN" "http://www.w3.org/Graphics/SVG/1.1/DTD/svg11.dtd">
<svg version="1.1" id="Layer_1" xmlns="http://www.w3.org/2000/svg" xmlns:xlink="http://www.w3.org/1999/xlink" x="0px" y="0px"
	 width="83.21px" height="27.614px" viewBox="0 0 83.21 27.614" enable-background="new 0 0 83.21 27.614" xml:space="preserve">
<g>
	<g>
		<linearGradient id="SVGID_1_" gradientUnits="userSpaceOnUse" x1="5.6382" y1="11.5938" x2="5.6382" y2="0.2891">
			<stop  offset="0" style="stop-color:#B6862C"/>
			<stop  offset="0.3879" style="stop-color:#C4932C"/>
			<stop  offset="0.6788" style="stop-color:#EDB61E"/>
			<stop  offset="1" style="stop-color:#FAC212"/>
		</linearGradient>
		<path fill="url(#SVGID_1_)" d="M10.292,3h-0.124c-0.092-0.523-0.339-0.967-0.738-1.33S8.57,1.041,8.052,0.873
			c-0.52-0.166-1.004-0.25-1.454-0.25c-0.616,0-1.194,0.129-1.735,0.389c-0.539,0.26-1.007,0.625-1.398,1.098
			C3.071,2.582,2.766,3.148,2.548,3.811C2.33,4.473,2.22,5.189,2.22,5.967c0,0.752,0.106,1.447,0.317,2.09S3.056,9.256,3.46,9.729
			c0.405,0.473,0.874,0.83,1.406,1.072c0.533,0.242,1.125,0.363,1.774,0.363c0.543,0,1.139-0.109,1.788-0.33s1.237-0.588,1.76-1.102
			v0.414c-0.645,0.5-1.234,0.865-1.771,1.098c-0.535,0.232-1.203,0.35-2.002,0.35c-0.844,0-1.614-0.154-2.309-0.463
			c-0.695-0.307-1.283-0.723-1.764-1.246C1.866,9.361,1.5,8.771,1.253,8.119c-0.247-0.656-0.37-1.328-0.37-2.021
			c0-1.043,0.257-2.012,0.771-2.904C2.167,2.299,2.863,1.59,3.74,1.07c0.878-0.521,1.83-0.781,2.858-0.781
			c0.634,0,1.311,0.094,2.027,0.283l0.757,0.211c0.146,0.029,0.269,0.043,0.37,0.043c0.189,0,0.314-0.027,0.378-0.084
			c0.063-0.055,0.111-0.154,0.146-0.301h0.116L10.292,3z"/>
		<linearGradient id="SVGID_2_" gradientUnits="userSpaceOnUse" x1="17.23" y1="11.5938" x2="17.23" y2="0.2891">
			<stop  offset="0" style="stop-color:#B6862C"/>
			<stop  offset="0.3879" style="stop-color:#C4932C"/>
			<stop  offset="0.6788" style="stop-color:#EDB61E"/>
			<stop  offset="1" style="stop-color:#FAC212"/>
		</linearGradient>
		<path fill="url(#SVGID_2_)" d="M22.889,5.967c0,1.004-0.248,1.936-0.745,2.799c-0.496,0.863-1.174,1.549-2.032,2.061
			c-0.857,0.512-1.807,0.768-2.85,0.768c-1.046,0-2.006-0.256-2.878-0.768c-0.873-0.512-1.56-1.199-2.062-2.068
			c-0.501-0.867-0.752-1.813-0.752-2.836c0-0.785,0.148-1.521,0.446-2.213c0.298-0.689,0.715-1.293,1.251-1.807
			c0.535-0.514,1.146-0.912,1.831-1.191c0.686-0.281,1.402-0.422,2.149-0.422c0.731,0,1.435,0.135,2.107,0.402
			c0.673,0.27,1.279,0.658,1.814,1.168c0.536,0.508,0.955,1.113,1.26,1.811C22.736,4.367,22.889,5.133,22.889,5.967z M21.61,5.996
			c0-1.426-0.252-2.541-0.756-3.346c-0.504-0.803-1.086-1.344-1.744-1.617c-0.659-0.273-1.279-0.41-1.861-0.41
			c-0.451,0-0.919,0.074-1.403,0.223c-0.485,0.148-0.957,0.416-1.414,0.809c-0.458,0.395-0.836,0.945-1.13,1.658
			c-0.296,0.713-0.444,1.594-0.444,2.639c0,0.922,0.123,1.725,0.368,2.41c0.244,0.688,0.58,1.246,1.009,1.68
			c0.43,0.434,0.903,0.746,1.419,0.938c0.515,0.191,1.052,0.289,1.609,0.289c0.499,0,1.005-0.09,1.517-0.268
			c0.511-0.176,0.978-0.465,1.403-0.863c0.423-0.4,0.768-0.943,1.031-1.631C21.477,7.822,21.61,6.984,21.61,5.996z"/>
		<linearGradient id="SVGID_3_" gradientUnits="userSpaceOnUse" x1="30.0024" y1="11.3086" x2="30.0024" y2="0.6016">
			<stop  offset="0" style="stop-color:#B6862C"/>
			<stop  offset="0.3879" style="stop-color:#C4932C"/>
			<stop  offset="0.6788" style="stop-color:#EDB61E"/>
			<stop  offset="1" style="stop-color:#FAC212"/>
		</linearGradient>
		<path fill="url(#SVGID_3_)" d="M35.576,0.602v0.123c-0.204,0.025-0.349,0.045-0.438,0.063c-0.086,0.018-0.184,0.066-0.291,0.148
			c-0.164,0.125-0.267,0.246-0.309,0.357c-0.042,0.109-0.066,0.305-0.076,0.582c-0.014,0.043-0.014,0.086,0,0.129l0.37,7.953
			c0.012,0.336,0.091,0.623,0.24,0.865c0.15,0.244,0.478,0.367,0.981,0.371v0.115h-3.468v-0.115c0.456-0.049,0.765-0.18,0.923-0.396
			c0.161-0.215,0.229-0.551,0.206-1.006l-0.372-8.23h-0.029l-3.779,9.748l-3.577-9.391h-0.03l-0.384,7.59
			c-0.02,0.416,0.006,0.738,0.076,0.969c0.069,0.23,0.183,0.396,0.338,0.494c0.155,0.102,0.386,0.174,0.69,0.223v0.115H23.95v-0.115
			c0.346-0.004,0.606-0.088,0.787-0.248c0.179-0.158,0.296-0.359,0.352-0.6c0.055-0.24,0.099-0.568,0.127-0.984l0.43-7.852
			c0-0.029-0.03-0.08-0.088-0.156c-0.059-0.074-0.13-0.15-0.214-0.225c-0.085-0.076-0.167-0.135-0.245-0.178
			c-0.163-0.104-0.307-0.162-0.427-0.18c-0.122-0.016-0.291-0.031-0.51-0.047V0.602h2.486l3.314,8.76l3.365-8.76H35.576z"/>
		<linearGradient id="SVGID_4_" gradientUnits="userSpaceOnUse" x1="42.7183" y1="11.3086" x2="42.7183" y2="0.6016">
			<stop  offset="0" style="stop-color:#B6862C"/>
			<stop  offset="0.3879" style="stop-color:#C4932C"/>
			<stop  offset="0.6788" style="stop-color:#EDB61E"/>
			<stop  offset="1" style="stop-color:#FAC212"/>
		</linearGradient>
		<path fill="url(#SVGID_4_)" d="M48.291,0.602v0.123c-0.204,0.025-0.35,0.045-0.436,0.063c-0.088,0.018-0.186,0.066-0.292,0.148
			c-0.165,0.125-0.269,0.246-0.309,0.357c-0.042,0.109-0.067,0.305-0.077,0.582c-0.014,0.043-0.014,0.086,0,0.129l0.37,7.953
			c0.011,0.336,0.091,0.623,0.241,0.865c0.151,0.244,0.478,0.367,0.982,0.371v0.115h-3.469v-0.115
			c0.455-0.049,0.764-0.18,0.924-0.396c0.158-0.215,0.228-0.551,0.203-1.006l-0.371-8.23h-0.029l-3.78,9.748l-3.576-9.391h-0.029
			l-0.386,7.59c-0.02,0.416,0.006,0.738,0.077,0.969s0.183,0.396,0.338,0.494c0.153,0.102,0.385,0.174,0.689,0.223v0.115h-2.696
			v-0.115c0.345-0.004,0.606-0.088,0.784-0.248c0.18-0.158,0.297-0.359,0.354-0.6s0.098-0.568,0.128-0.984L38.36,1.51
			c0-0.029-0.029-0.08-0.088-0.156c-0.058-0.074-0.13-0.15-0.215-0.225c-0.084-0.076-0.166-0.135-0.242-0.178
			c-0.166-0.104-0.309-0.162-0.429-0.18c-0.122-0.016-0.292-0.031-0.51-0.047V0.602h2.485l3.315,8.76l3.367-8.76H48.291z"/>
		<linearGradient id="SVGID_5_" gradientUnits="userSpaceOnUse" x1="54.2329" y1="11.3086" x2="54.2329" y2="0.4707">
			<stop  offset="0" style="stop-color:#B6862C"/>
			<stop  offset="0.3879" style="stop-color:#C4932C"/>
			<stop  offset="0.6788" style="stop-color:#EDB61E"/>
			<stop  offset="1" style="stop-color:#FAC212"/>
		</linearGradient>
		<path fill="url(#SVGID_5_)" d="M54.528,0.471l3.206,9.174c0.169,0.475,0.329,0.82,0.479,1.033s0.294,0.348,0.432,0.402
			c0.14,0.057,0.315,0.094,0.527,0.113v0.115h-3.496v-0.115c0.358,0,0.636-0.033,0.828-0.102c0.194-0.068,0.291-0.252,0.291-0.553
			c0-0.164-0.045-0.385-0.139-0.662c-0.019-0.037-0.028-0.068-0.028-0.086l-0.952-2.844h-3.708L51.118,9.58
			c-0.116,0.357-0.175,0.646-0.175,0.865c0,0.299,0.076,0.5,0.227,0.6c0.148,0.1,0.363,0.148,0.64,0.148v0.115h-2.516v-0.115
			c0.357-0.033,0.646-0.172,0.861-0.41c0.215-0.24,0.402-0.605,0.563-1.094l3.023-9.219H54.528z M52.093,6.563h3.408L53.756,1.48
			h-0.029L52.093,6.563z"/>
		<linearGradient id="SVGID_6_" gradientUnits="userSpaceOnUse" x1="65.188" y1="11.5781" x2="65.188" y2="0.6016">
			<stop  offset="0" style="stop-color:#B6862C"/>
			<stop  offset="0.3879" style="stop-color:#C4932C"/>
			<stop  offset="0.6788" style="stop-color:#EDB61E"/>
			<stop  offset="1" style="stop-color:#FAC212"/>
		</linearGradient>
		<path fill="url(#SVGID_6_)" d="M70.978,0.602v0.123c-0.27,0.035-0.484,0.086-0.643,0.156c-0.157,0.07-0.279,0.209-0.367,0.414
			c-0.088,0.207-0.13,0.504-0.13,0.891v9.393h-0.073l-8.222-9.174V8.99c0,0.547,0.021,0.955,0.065,1.221
			c0.043,0.268,0.105,0.459,0.188,0.576c0.179,0.252,0.49,0.387,0.938,0.406v0.115h-2.683v-0.115
			c0.301-0.014,0.535-0.078,0.702-0.193c0.167-0.113,0.285-0.322,0.356-0.625c0.07-0.303,0.104-0.76,0.104-1.369V2.02l-0.356-0.4
			c-0.314-0.357-0.566-0.586-0.756-0.682c-0.188-0.092-0.425-0.164-0.704-0.213V0.602h2.013l8.099,9.072V2.76
			c0-0.518-0.021-0.906-0.062-1.162c-0.042-0.258-0.149-0.463-0.328-0.617c-0.177-0.156-0.453-0.24-0.832-0.256V0.602H70.978z"/>
		<linearGradient id="SVGID_7_" gradientUnits="userSpaceOnUse" x1="77.1704" y1="11.3086" x2="77.1704" y2="0.6016">
			<stop  offset="0" style="stop-color:#B6862C"/>
			<stop  offset="0.3879" style="stop-color:#C4932C"/>
			<stop  offset="0.6788" style="stop-color:#EDB61E"/>
			<stop  offset="1" style="stop-color:#FAC212"/>
		</linearGradient>
		<path fill="url(#SVGID_7_)" d="M72.012,0.725V0.602h4.122c0.577,0,1.107,0.049,1.594,0.148c0.487,0.1,0.925,0.232,1.31,0.396
			c0.387,0.166,0.719,0.346,1,0.541c0.28,0.197,0.518,0.396,0.712,0.6c0.34,0.34,0.629,0.717,0.864,1.133
			c0.239,0.412,0.416,0.852,0.536,1.311c0.118,0.459,0.178,0.936,0.178,1.426c0,0.488-0.059,0.953-0.175,1.395
			c-0.117,0.441-0.284,0.85-0.501,1.225c-0.219,0.377-0.479,0.717-0.782,1.021c-0.302,0.307-0.655,0.582-1.059,0.83
			c-0.344,0.203-0.737,0.367-1.184,0.494s-1.05,0.188-1.811,0.188h-4.805v-0.115h0.145c0.334,0,0.584-0.127,0.748-0.379
			c0.166-0.252,0.247-0.518,0.247-0.799V1.932c0-0.27-0.045-0.5-0.134-0.684s-0.208-0.316-0.36-0.4
			c-0.149-0.082-0.316-0.123-0.501-0.123H72.012z M74.256,1.111v8.482c0,0.418,0.068,0.723,0.2,0.92
			c0.135,0.197,0.342,0.322,0.623,0.381s0.693,0.088,1.236,0.088c0.775,0,1.429-0.076,1.962-0.229s1.05-0.494,1.549-1.021
			c0.368-0.393,0.664-0.873,0.887-1.441c0.223-0.564,0.334-1.252,0.334-2.057c0-0.633-0.09-1.262-0.269-1.885
			s-0.454-1.176-0.821-1.662c-0.412-0.549-0.94-0.977-1.588-1.287c-0.647-0.309-1.427-0.465-2.338-0.465
			C75.562,0.936,74.97,0.994,74.256,1.111z"/>
	</g>
	<g>
		<linearGradient id="SVGID_8_" gradientUnits="userSpaceOnUse" x1="17.9185" y1="27.3262" x2="17.9185" y2="16.0137">
			<stop  offset="0" style="stop-color:#B6862C"/>
			<stop  offset="0.3879" style="stop-color:#C4932C"/>
			<stop  offset="0.6788" style="stop-color:#EDB61E"/>
			<stop  offset="1" style="stop-color:#FAC212"/>
		</linearGradient>
		<path fill="url(#SVGID_8_)" d="M22.575,18.727h-0.124c-0.093-0.523-0.339-0.967-0.738-1.33c-0.4-0.365-0.86-0.629-1.379-0.797
			c-0.52-0.168-1.004-0.252-1.455-0.252c-0.616,0-1.194,0.131-1.735,0.389c-0.541,0.26-1.007,0.627-1.4,1.1
			c-0.393,0.473-0.698,1.041-0.916,1.703c-0.219,0.662-0.328,1.381-0.328,2.156c0,0.752,0.105,1.449,0.316,2.092
			c0.212,0.643,0.52,1.201,0.925,1.674c0.404,0.473,0.874,0.83,1.407,1.072s1.125,0.363,1.775,0.363c0.543,0,1.14-0.109,1.789-0.33
			c0.65-0.221,1.237-0.588,1.761-1.104v0.416c-0.646,0.5-1.235,0.865-1.771,1.098c-0.536,0.234-1.204,0.35-2.004,0.35
			c-0.845,0-1.614-0.154-2.31-0.463c-0.696-0.307-1.284-0.723-1.765-1.246s-0.844-1.113-1.091-1.768
			c-0.248-0.654-0.371-1.33-0.371-2.023c0-1.043,0.257-2.012,0.771-2.906c0.515-0.895,1.21-1.602,2.088-2.125
			c0.878-0.521,1.831-0.781,2.859-0.781c0.636,0,1.313,0.094,2.03,0.283l0.756,0.211c0.146,0.029,0.27,0.045,0.371,0.045
			c0.189,0,0.315-0.029,0.379-0.084c0.063-0.057,0.111-0.156,0.146-0.303h0.116L22.575,18.727z"/>
		<linearGradient id="SVGID_9_" gradientUnits="userSpaceOnUse" x1="26.9868" y1="27.043" x2="26.9868" y2="16.3262">
			<stop  offset="0" style="stop-color:#B6862C"/>
			<stop  offset="0.3879" style="stop-color:#C4932C"/>
			<stop  offset="0.6788" style="stop-color:#EDB61E"/>
			<stop  offset="1" style="stop-color:#FAC212"/>
		</linearGradient>
		<path fill="url(#SVGID_9_)" d="M23.607,16.449v-0.123h6.388v1.688h-0.102c0-0.902-0.602-1.352-1.805-1.352h-2.233v4.865h1.964
			c0.389,0,0.735-0.063,1.041-0.188c0.306-0.127,0.48-0.416,0.523-0.867h0.109v2.43h-0.109c-0.043-0.275-0.126-0.488-0.248-0.637
			c-0.12-0.146-0.24-0.246-0.359-0.295c-0.118-0.047-0.224-0.072-0.316-0.072c-0.175-0.029-0.356-0.043-0.546-0.043h-2.059v3.805
			c0,0.287,0.055,0.533,0.164,0.742c0.108,0.209,0.362,0.313,0.76,0.313h1.594c0.383,0,0.698-0.055,0.945-0.168
			c0.247-0.111,0.442-0.266,0.586-0.465c0.143-0.199,0.263-0.438,0.36-0.719h0.102l-0.371,1.68h-6.388v-0.117h0.146
			c0.229,0,0.451-0.092,0.67-0.275c0.218-0.186,0.327-0.486,0.327-0.902v-8.076c0-0.33-0.074-0.615-0.222-0.857
			c-0.148-0.242-0.407-0.365-0.775-0.365H23.607z"/>
		<linearGradient id="SVGID_10_" gradientUnits="userSpaceOnUse" x1="36.5161" y1="27.3125" x2="36.5161" y2="16.3262">
			<stop  offset="0" style="stop-color:#B6862C"/>
			<stop  offset="0.3879" style="stop-color:#C4932C"/>
			<stop  offset="0.6788" style="stop-color:#EDB61E"/>
			<stop  offset="1" style="stop-color:#FAC212"/>
		</linearGradient>
		<path fill="url(#SVGID_10_)" d="M42.311,16.326v0.123c-0.271,0.035-0.485,0.086-0.645,0.158c-0.156,0.068-0.279,0.209-0.367,0.414
			c-0.087,0.205-0.13,0.504-0.13,0.891v9.4h-0.072l-8.229-9.182v6.592c0,0.547,0.021,0.955,0.065,1.221
			c0.043,0.268,0.106,0.459,0.189,0.576c0.179,0.252,0.491,0.387,0.938,0.406v0.117h-2.684v-0.117
			c0.301-0.014,0.534-0.078,0.702-0.191c0.167-0.115,0.285-0.324,0.355-0.627s0.106-0.76,0.106-1.371v-6.99l-0.357-0.4
			c-0.315-0.359-0.566-0.586-0.757-0.682c-0.189-0.094-0.424-0.166-0.705-0.215v-0.123h2.016l8.104,9.08v-6.918
			c0-0.52-0.021-0.908-0.063-1.164c-0.041-0.258-0.15-0.465-0.327-0.619c-0.178-0.154-0.454-0.24-0.834-0.256v-0.123H42.311z"/>
		<linearGradient id="SVGID_11_" gradientUnits="userSpaceOnUse" x1="47.7534" y1="27.043" x2="47.7534" y2="15.7949">
			<stop  offset="0" style="stop-color:#B6862C"/>
			<stop  offset="0.3879" style="stop-color:#C4932C"/>
			<stop  offset="0.6788" style="stop-color:#EDB61E"/>
			<stop  offset="1" style="stop-color:#FAC212"/>
		</linearGradient>
		<path fill="url(#SVGID_11_)" d="M52.475,18.414h-0.117c-0.054-0.697-0.257-1.15-0.611-1.355c-0.354-0.207-0.79-0.311-1.31-0.311
			h-2.131v9c0,0.762,0.388,1.154,1.164,1.178v0.117h-3.413v-0.117c0.32-0.01,0.591-0.104,0.812-0.279
			c0.221-0.178,0.332-0.477,0.332-0.898v-9h-2.133c-0.518,0-0.953,0.104-1.306,0.311c-0.351,0.205-0.557,0.658-0.614,1.355h-0.116
			v-2.619h0.116c0.077,0.121,0.145,0.211,0.203,0.27s0.134,0.109,0.226,0.148c0.092,0.041,0.2,0.07,0.324,0.088
			c0.123,0.018,0.27,0.025,0.44,0.025h6.94c0.46,0,0.819-0.178,1.076-0.531h0.117V18.414z"/>
		<linearGradient id="SVGID_12_" gradientUnits="userSpaceOnUse" x1="56.6313" y1="27.043" x2="56.6313" y2="16.3262">
			<stop  offset="0" style="stop-color:#B6862C"/>
			<stop  offset="0.3879" style="stop-color:#C4932C"/>
			<stop  offset="0.6788" style="stop-color:#EDB61E"/>
			<stop  offset="1" style="stop-color:#FAC212"/>
		</linearGradient>
		<path fill="url(#SVGID_12_)" d="M53.252,16.449v-0.123h6.388v1.688h-0.103c0-0.902-0.601-1.352-1.804-1.352H55.5v4.865h1.964
			c0.389,0,0.735-0.063,1.041-0.188c0.306-0.127,0.48-0.416,0.523-0.867h0.109v2.43h-0.109c-0.043-0.275-0.126-0.488-0.248-0.637
			c-0.12-0.146-0.24-0.246-0.359-0.295c-0.118-0.047-0.224-0.072-0.316-0.072c-0.175-0.029-0.355-0.043-0.546-0.043H55.5v3.805
			c0,0.287,0.055,0.533,0.164,0.742s0.362,0.313,0.76,0.313h1.594c0.383,0,0.698-0.055,0.945-0.168
			c0.247-0.111,0.442-0.266,0.586-0.465c0.143-0.199,0.263-0.438,0.36-0.719h0.102l-0.371,1.68h-6.388v-0.117h0.146
			c0.228,0,0.45-0.092,0.669-0.275c0.218-0.186,0.327-0.486,0.327-0.902v-8.076c0-0.33-0.074-0.615-0.222-0.857
			c-0.148-0.242-0.406-0.365-0.774-0.365H53.252z"/>
		<linearGradient id="SVGID_13_" gradientUnits="userSpaceOnUse" x1="65.4126" y1="27.043" x2="65.4126" y2="16.3262">
			<stop  offset="0" style="stop-color:#B6862C"/>
			<stop  offset="0.3879" style="stop-color:#C4932C"/>
			<stop  offset="0.6788" style="stop-color:#EDB61E"/>
			<stop  offset="1" style="stop-color:#FAC212"/>
		</linearGradient>
		<path fill="url(#SVGID_13_)" d="M60.979,16.48h-0.146v-0.154h3.71c0.597,0,1.103,0.092,1.517,0.275
			c0.415,0.186,0.737,0.42,0.968,0.703s0.395,0.582,0.495,0.898c0.099,0.314,0.148,0.627,0.148,0.932
			c0,0.387-0.081,0.76-0.243,1.115c-0.162,0.357-0.413,0.664-0.75,0.922s-0.757,0.432-1.262,0.523v0.029
			c0.641,0.311,1.231,0.926,1.775,1.848l0.968,1.637c0.436,0.732,0.787,1.195,1.05,1.391c0.266,0.193,0.526,0.303,0.783,0.326v0.117
			h-1.949c-0.083-0.107-0.16-0.211-0.233-0.309c-0.072-0.1-0.15-0.205-0.232-0.318c-0.049-0.072-0.121-0.182-0.215-0.33
			c-0.095-0.148-0.152-0.232-0.171-0.252l-1.281-2.115c-0.257-0.432-0.52-0.783-0.789-1.053c-0.269-0.27-0.52-0.461-0.753-0.578
			c-0.232-0.117-0.442-0.189-0.629-0.219c-0.187-0.027-0.407-0.043-0.658-0.043v3.922c0,0.762,0.388,1.154,1.163,1.178v0.117h-3.411
			v-0.117c0.213-0.01,0.402-0.049,0.567-0.119s0.302-0.191,0.411-0.363c0.109-0.174,0.163-0.404,0.163-0.695v-8.105
			c0-0.426-0.104-0.727-0.313-0.9C61.454,16.566,61.226,16.48,60.979,16.48z M63.082,21.543h0.611c0.64,0,1.165-0.092,1.574-0.275
			c0.41-0.186,0.707-0.449,0.891-0.791c0.186-0.342,0.277-0.76,0.277-1.254c0-0.412-0.083-0.816-0.247-1.213
			c-0.165-0.395-0.445-0.727-0.841-0.996s-0.928-0.404-1.597-0.404c-0.271,0-0.494,0.023-0.669,0.066V21.543z"/>
	</g>
</g>
</svg>
